<svg width="196" height="48" viewBox="0 0 196 48" fill="none" xmlns="http://www.w3.org/2000/svg">
<g clip-path="url(#clip0)">
<path d="M48.001 36.0119V24C48.001 19.6385 46.8331 15.5392 44.7835 11.9881C42.6861 8.34161 39.6354 5.3148 35.9888 3.19365C32.4615 1.16783 28.3859 0 24.0005 0C19.6151 0 15.5395 1.16783 12.0122 3.21748C8.36562 5.3148 5.33874 8.36545 3.21754 12.0119C1.16785 15.5392 0 19.6385 0 24C0 28.3615 1.16785 32.4608 3.21754 36.0119C5.31491 39.6584 8.36562 42.6852 12.0122 44.8064C15.5395 46.856 19.6389 48.0238 24.0243 48.0238C28.4097 48.0238 32.4853 46.856 36.0365 44.8064C36.8707 44.3297 37.681 43.7815 38.4437 43.2095C40.6364 46.1172 44.1161 48 48.0487 48C50.2414 48 52.2911 47.4042 54.0548 46.4032C50.4082 44.3297 48.001 40.4449 48.001 36.0119ZM24.0005 36.0119C17.3747 36.0119 11.9883 30.6495 11.9883 24C11.9883 17.3506 17.3509 11.9881 24.0005 11.9881C30.6501 11.9881 36.0127 17.3506 36.0127 24C36.0127 30.6495 30.6263 36.0119 24.0005 36.0119Z" fill="white"/>
<path d="M60.3946 41.2792C63.093 41.2792 65.2805 39.0917 65.2805 36.3934C65.2805 33.695 63.093 31.5076 60.3946 31.5076C57.6962 31.5076 55.5087 33.695 55.5087 36.3934C55.5087 39.0917 57.6962 41.2792 60.3946 41.2792Z" fill="white"/>
<path d="M90.8062 19.1858L91.0207 16.3496H95.7398V35.6545H91.0207L90.8062 32.8183C89.7576 34.8918 87.4695 35.9405 83.9183 35.9405C81.3681 35.9405 79.0801 34.868 77.4594 33.152C75.8387 31.436 74.8138 28.862 74.8138 26.0021C74.8138 23.1421 75.8149 20.5681 77.4594 18.8283C79.0801 17.1123 81.3919 16.0398 83.9183 16.0398C87.1359 16.0636 89.6861 17.2076 90.8062 19.1858ZM89.2094 30.1252C90.2819 29.0527 90.8062 27.6704 90.8062 26.0021C90.8062 24.3337 90.2819 22.9752 89.2094 21.8789C88.1369 20.8064 86.826 20.2583 85.253 20.2583C83.7038 20.2583 82.4168 20.7826 81.3681 21.8789C80.2956 22.9514 79.7712 24.3337 79.7712 26.0021C79.7712 27.6704 80.2956 29.0289 81.3681 30.1252C82.4406 31.1977 83.7276 31.7458 85.253 31.7458C86.826 31.7697 88.113 31.2215 89.2094 30.1252Z" fill="white"/>
<path d="M130.728 18.733C131.8 20.5205 132.253 22.8085 132.253 26.0022V35.6546H127.296V26.0022C127.296 22.2365 126.08 20.2584 123.268 20.2584C121.766 20.2584 120.598 20.7827 119.764 21.8075C118.93 22.8562 118.501 24.2385 118.501 26.0022V35.6546H113.567V26.0022C113.567 22.2365 112.352 20.2584 109.516 20.2584C108.014 20.2584 106.846 20.7827 106.012 21.8075C105.178 22.8562 104.749 24.2385 104.749 26.0022V35.6546H99.8154V16.3497H104.558L104.773 19.1859C105.822 17.1124 107.99 16.0637 111.303 16.0637C114.521 16.0637 116.642 17.4222 117.667 20.1392C118.978 17.4222 121.456 16.0637 125.055 16.0637C127.725 16.0637 129.631 16.9694 130.728 18.733Z" fill="white"/>
<path d="M151.248 19.1858L151.463 16.3496H156.182V35.6545H151.463L151.248 32.8183C150.2 34.8918 147.912 35.9405 144.36 35.9405C141.81 35.9405 139.522 34.868 137.902 33.152C136.281 31.436 135.256 28.862 135.256 26.0021C135.256 23.1421 136.257 20.5681 137.902 18.8283C139.522 17.1123 141.834 16.0398 144.36 16.0398C147.602 16.0636 150.128 17.2076 151.248 19.1858ZM149.652 30.1252C150.724 29.0527 151.248 27.6704 151.248 26.0021C151.248 24.3337 150.724 22.9752 149.652 21.8789C148.579 20.8064 147.268 20.2583 145.695 20.2583C144.146 20.2583 142.859 20.7826 141.81 21.8789C140.738 22.9514 140.213 24.3337 140.213 26.0021C140.213 27.6704 140.738 29.0289 141.81 30.1252C142.883 31.1977 144.17 31.7458 145.695 31.7458C147.268 31.7697 148.579 31.2215 149.652 30.1252Z" fill="white"/>
<path d="M162.307 12.012H167.241V16.3734H172.007V20.2344H167.241V29.005C167.241 30.578 167.837 31.4598 169.028 31.6267C169.91 31.8173 170.887 31.8173 172.007 31.6028V35.6783C170.72 35.8928 169.529 35.9881 168.409 35.9881C166.192 35.9881 164.643 35.44 163.713 34.3198C162.76 33.1996 162.307 31.5075 162.307 29.1957V20.2106H159.685V16.3496H162.307V12.012Z" fill="white"/>
<path d="M189.978 19.1858L190.193 16.3496H194.912V35.6545H190.216L190.002 32.8183C188.953 34.8918 186.665 35.9405 183.114 35.9405C180.564 35.9405 178.276 34.868 176.655 33.152C175.034 31.436 174.01 28.862 174.01 26.0021C174.01 23.1421 175.011 20.5681 176.655 18.8283C178.276 17.1123 180.588 16.0398 183.114 16.0398C186.332 16.0636 188.882 17.2076 189.978 19.1858ZM188.381 30.1252C189.454 29.0527 189.978 27.6704 189.978 26.0021C189.978 24.3337 189.454 22.9752 188.381 21.8789C187.309 20.8064 185.998 20.2583 184.425 20.2583C182.876 20.2583 181.589 20.7826 180.54 21.8789C179.467 22.9514 178.943 24.3337 178.943 26.0021C178.943 27.6704 179.467 29.0289 180.54 30.1252C181.612 31.1977 182.899 31.7458 184.425 31.7458C185.998 31.7697 187.309 31.2215 188.381 30.1252Z" fill="white"/>
</g>
<defs>
<clipPath id="clip0">
<rect width="195.15" height="48" fill="white"/>
</clipPath>
</defs>
</svg>
